<svg width="16" height="17" viewBox="0 0 16 17" fill="none" xmlns="http://www.w3.org/2000/svg">
<mask id="path-1-inside-1_6_745" fill="white">
<path d="M4.84999 12.2693L4.23077 11.6501L7.38077 8.50005L4.23077 5.35005L4.84999 4.73083L7.99999 7.88084L11.15 4.73083L11.7692 5.35005L8.61921 8.50005L11.7692 11.6501L11.15 12.2693L7.99999 9.11927L4.84999 12.2693Z"/>
</mask>
<path d="M4.84999 12.2693L4.23077 11.6501L7.38077 8.50005L4.23077 5.35005L4.84999 4.73083L7.99999 7.88084L11.15 4.73083L11.7692 5.35005L8.61921 8.50005L11.7692 11.6501L11.15 12.2693L7.99999 9.11927L4.84999 12.2693Z" fill="white"/>
<path d="M4.84999 12.2693L4.14288 12.9764L4.84999 13.6835L5.5571 12.9764L4.84999 12.2693ZM4.23077 11.6501L3.52367 10.9429L2.81656 11.6501L3.52367 12.3572L4.23077 11.6501ZM7.38077 8.50005L8.08788 9.20716L8.79499 8.50005L8.08788 7.79295L7.38077 8.50005ZM4.23077 5.35005L3.52367 4.64295L2.81656 5.35005L3.52367 6.05716L4.23077 5.35005ZM4.84999 4.73083L5.5571 4.02373L4.84999 3.31662L4.14288 4.02373L4.84999 4.73083ZM7.99999 7.88084L7.29288 8.58794L7.99999 9.29505L8.7071 8.58794L7.99999 7.88084ZM11.15 4.73083L11.8571 4.02373L11.15 3.31662L10.4429 4.02373L11.15 4.73083ZM11.7692 5.35005L12.4763 6.05716L13.1834 5.35005L12.4763 4.64295L11.7692 5.35005ZM8.61921 8.50005L7.9121 7.79295L7.20499 8.50005L7.9121 9.20716L8.61921 8.50005ZM11.7692 11.6501L12.4763 12.3572L13.1834 11.6501L12.4763 10.9429L11.7692 11.6501ZM11.15 12.2693L10.4429 12.9764L11.15 13.6835L11.8571 12.9764L11.15 12.2693ZM7.99999 9.11927L8.7071 8.41216L7.99999 7.70506L7.29288 8.41216L7.99999 9.11927ZM5.5571 11.5622L4.93788 10.9429L3.52367 12.3572L4.14288 12.9764L5.5571 11.5622ZM4.93788 12.3572L8.08788 9.20716L6.67367 7.79295L3.52367 10.9429L4.93788 12.3572ZM8.08788 7.79295L4.93788 4.64295L3.52367 6.05716L6.67367 9.20716L8.08788 7.79295ZM4.93788 6.05716L5.5571 5.43794L4.14288 4.02373L3.52367 4.64295L4.93788 6.05716ZM4.14288 5.43794L7.29288 8.58794L8.7071 7.17373L5.5571 4.02373L4.14288 5.43794ZM8.7071 8.58794L11.8571 5.43794L10.4429 4.02373L7.29288 7.17373L8.7071 8.58794ZM10.4429 5.43794L11.0621 6.05716L12.4763 4.64295L11.8571 4.02373L10.4429 5.43794ZM11.0621 4.64295L7.9121 7.79295L9.32631 9.20716L12.4763 6.05716L11.0621 4.64295ZM7.9121 9.20716L11.0621 12.3572L12.4763 10.9429L9.32631 7.79295L7.9121 9.20716ZM11.0621 10.9429L10.4429 11.5622L11.8571 12.9764L12.4763 12.3572L11.0621 10.9429ZM11.8571 11.5622L8.7071 8.41216L7.29288 9.82638L10.4429 12.9764L11.8571 11.5622ZM7.29288 8.41216L4.14288 11.5622L5.5571 12.9764L8.7071 9.82638L7.29288 8.41216Z" fill="white" mask="url(#path-1-inside-1_6_745)"/>
</svg>
