<svg width="8" height="13" viewBox="0 0 8 13" fill="none" xmlns="http://www.w3.org/2000/svg">
<path d="M1.4956 12.1795C1.17003 12.1795 0.892793 12.0636 0.66389 11.8317C0.435001 11.5999 0.320557 11.3212 0.320557 10.9956C0.320557 10.67 0.436481 10.3928 0.668328 10.1639C0.900161 9.935 1.17886 9.82056 1.50443 9.82056C1.83 9.82056 2.10724 9.93648 2.33614 10.1683C2.56503 10.4002 2.67947 10.6789 2.67947 11.0044C2.67947 11.33 2.56355 11.6072 2.3317 11.8361C2.09987 12.065 1.82117 12.1795 1.4956 12.1795ZM6.4956 12.1795C6.17003 12.1795 5.89279 12.0636 5.66389 11.8317C5.435 11.5999 5.32056 11.3212 5.32056 10.9956C5.32056 10.67 5.43648 10.3928 5.66833 10.1639C5.90016 9.935 6.17886 9.82056 6.50443 9.82056C6.83 9.82056 7.10724 9.93648 7.33614 10.1683C7.56503 10.4002 7.67947 10.6789 7.67947 11.0044C7.67947 11.33 7.56355 11.6072 7.3317 11.8361C7.09987 12.065 6.82117 12.1795 6.4956 12.1795ZM1.4956 7.67947C1.17003 7.67947 0.892793 7.56355 0.66389 7.3317C0.435001 7.09987 0.320557 6.82117 0.320557 6.4956C0.320557 6.17003 0.436481 5.89279 0.668328 5.66389C0.900161 5.435 1.17886 5.32056 1.50443 5.32056C1.83 5.32056 2.10724 5.43648 2.33614 5.66833C2.56503 5.90016 2.67947 6.17886 2.67947 6.50443C2.67947 6.83 2.56355 7.10724 2.3317 7.33614C2.09987 7.56503 1.82117 7.67947 1.4956 7.67947ZM6.4956 7.67947C6.17003 7.67947 5.89279 7.56355 5.66389 7.3317C5.435 7.09987 5.32056 6.82117 5.32056 6.4956C5.32056 6.17003 5.43648 5.89279 5.66833 5.66389C5.90016 5.435 6.17886 5.32056 6.50443 5.32056C6.83 5.32056 7.10724 5.43648 7.33614 5.66833C7.56503 5.90016 7.67947 6.17886 7.67947 6.50443C7.67947 6.83 7.56355 7.10724 7.3317 7.33614C7.09987 7.56503 6.82117 7.67947 6.4956 7.67947ZM1.4956 3.17947C1.17003 3.17947 0.892793 3.06355 0.66389 2.8317C0.435001 2.59987 0.320557 2.32117 0.320557 1.9956C0.320557 1.67003 0.436481 1.39279 0.668328 1.16389C0.900161 0.935002 1.17886 0.820557 1.50443 0.820557C1.83 0.820557 2.10724 0.93648 2.33614 1.16833C2.56503 1.40016 2.67947 1.67886 2.67947 2.00443C2.67947 2.33 2.56355 2.60724 2.3317 2.83614C2.09987 3.06503 1.82117 3.17947 1.4956 3.17947ZM6.4956 3.17947C6.17003 3.17947 5.89279 3.06355 5.66389 2.8317C5.435 2.59987 5.32056 2.32117 5.32056 1.9956C5.32056 1.67003 5.43648 1.39279 5.66833 1.16389C5.90016 0.935002 6.17886 0.820557 6.50443 0.820557C6.83 0.820557 7.10724 0.93648 7.33614 1.16833C7.56503 1.40016 7.67947 1.67886 7.67947 2.00443C7.67947 2.33 7.56355 2.60724 7.3317 2.83614C7.09987 3.06503 6.82117 3.17947 6.4956 3.17947Z" fill="#999999"/>
</svg>
