<svg width="20" height="21" viewBox="0 0 20 21" fill="none" xmlns="http://www.w3.org/2000/svg">
<path d="M7.49558 16.1795C7.17001 16.1795 6.89278 16.0636 6.66387 15.8317C6.43499 15.5999 6.32054 15.3212 6.32054 14.9956C6.32054 14.67 6.43647 14.3928 6.66831 14.1639C6.90015 13.935 7.17885 13.8206 7.50442 13.8206C7.82999 13.8206 8.10722 13.9365 8.33613 14.1683C8.56501 14.4002 8.67946 14.6789 8.67946 15.0044C8.67946 15.33 8.56353 15.6072 8.33169 15.8361C8.09985 16.065 7.82115 16.1795 7.49558 16.1795ZM12.4956 16.1795C12.17 16.1795 11.8928 16.0636 11.6639 15.8317C11.435 15.5999 11.3205 15.3212 11.3205 14.9956C11.3205 14.67 11.4365 14.3928 11.6683 14.1639C11.9001 13.935 12.1788 13.8206 12.5044 13.8206C12.83 13.8206 13.1072 13.9365 13.3361 14.1683C13.565 14.4002 13.6795 14.6789 13.6795 15.0044C13.6795 15.33 13.5635 15.6072 13.3317 15.8361C13.0999 16.065 12.8212 16.1795 12.4956 16.1795ZM7.49558 11.6795C7.17001 11.6795 6.89278 11.5635 6.66387 11.3317C6.43499 11.0999 6.32054 10.8212 6.32054 10.4956C6.32054 10.17 6.43647 9.89279 6.66831 9.66389C6.90015 9.435 7.17885 9.32056 7.50442 9.32056C7.82999 9.32056 8.10722 9.43648 8.33613 9.66833C8.56501 9.90016 8.67946 10.1789 8.67946 10.5044C8.67946 10.83 8.56353 11.1072 8.33169 11.3361C8.09985 11.565 7.82115 11.6795 7.49558 11.6795ZM12.4956 11.6795C12.17 11.6795 11.8928 11.5635 11.6639 11.3317C11.435 11.0999 11.3205 10.8212 11.3205 10.4956C11.3205 10.17 11.4365 9.89279 11.6683 9.66389C11.9001 9.435 12.1788 9.32056 12.5044 9.32056C12.83 9.32056 13.1072 9.43648 13.3361 9.66833C13.565 9.90016 13.6795 10.1789 13.6795 10.5044C13.6795 10.83 13.5635 11.1072 13.3317 11.3361C13.0999 11.565 12.8212 11.6795 12.4956 11.6795ZM7.49558 7.17947C7.17001 7.17947 6.89278 7.06355 6.66387 6.8317C6.43499 6.59987 6.32054 6.32117 6.32054 5.9956C6.32054 5.67003 6.43647 5.39279 6.66831 5.16389C6.90015 4.935 7.17885 4.82056 7.50442 4.82056C7.82999 4.82056 8.10722 4.93648 8.33613 5.16833C8.56501 5.40016 8.67946 5.67886 8.67946 6.00443C8.67946 6.33 8.56353 6.60724 8.33169 6.83614C8.09985 7.06503 7.82115 7.17947 7.49558 7.17947ZM12.4956 7.17947C12.17 7.17947 11.8928 7.06355 11.6639 6.8317C11.435 6.59987 11.3205 6.32117 11.3205 5.9956C11.3205 5.67003 11.4365 5.39279 11.6683 5.16389C11.9001 4.935 12.1788 4.82056 12.5044 4.82056C12.83 4.82056 13.1072 4.93648 13.3361 5.16833C13.565 5.40016 13.6795 5.67886 13.6795 6.00443C13.6795 6.33 13.5635 6.60724 13.3317 6.83614C13.0999 7.06503 12.8212 7.17947 12.4956 7.17947Z" fill="#999999"/>
</svg>
